<svg xmlns="http://www.w3.org/2000/svg" width="625" height="432" viewBox="0 0 625 432" version="1.1"><path d="M 134.920 2.858 C 126.029 6.658, 120.554 10.584, 113.237 18.406 C 106.108 26.026, 100.633 36.518, 98.479 46.685 C 96.295 56.991, 96.319 375.092, 98.504 385.500 C 102.136 402.798, 115.349 419.681, 131.448 427.594 L 139.396 431.500 314.948 431.500 L 490.500 431.500 498.500 427.606 C 514.658 419.741, 527.791 402.922, 531.521 385.315 C 533.683 375.111, 533.683 56.889, 531.521 46.685 C 527.791 29.078, 514.658 12.259, 498.500 4.394 L 490.500 0.500 316 0.273 L 141.500 0.045 134.920 2.858 M 304.500 126.164 C 297.331 127.513, 285.983 133.401, 280.584 138.574 C 274.107 144.780, 268.551 153.783, 266.483 161.425 C 264.147 170.053, 264.818 185.103, 267.891 193 C 272.718 205.408, 283.957 216.673, 296.694 221.868 C 303.908 224.810, 317.322 225.823, 325.119 224.014 C 352.040 217.767, 369.174 191.615, 363.628 165.235 C 357.930 138.124, 332.002 120.991, 304.500 126.164 M 301 131.875 C 285.011 137.013, 272.774 151.356, 269.921 168.305 C 269.291 172.047, 269.011 175.344, 269.299 175.632 C 269.587 175.920, 271.652 173.678, 273.889 170.650 C 278.727 164.102, 279.331 163.674, 283.893 163.576 C 287.003 163.509, 288.046 162.711, 292.846 156.734 C 295.834 153.013, 299.228 149.776, 300.389 149.542 C 301.550 149.307, 304.151 148.851, 306.169 148.527 C 309.004 148.073, 310.312 147.136, 311.924 144.404 C 313.625 141.521, 314.517 140.926, 316.755 141.184 C 319.455 141.495, 320.590 142.868, 327.517 154.200 C 329.245 157.027, 330.242 157.581, 334.464 158.068 C 338.595 158.544, 339.806 159.191, 341.946 162.065 C 345.461 166.784, 355.209 176.507, 357.838 177.913 C 359.899 179.016, 359.999 178.869, 359.985 174.785 C 359.933 159.643, 350.545 143.464, 337.500 136.034 C 326.797 129.939, 312.201 128.275, 301 131.875 M 313 147.070 C 311.058 149.450, 309.400 150.287, 305.566 150.820 C 300.986 151.457, 300.359 151.901, 296.843 157.003 C 291.481 164.783, 287.641 168, 283.716 168 C 280.844 168, 275.408 171.473, 269.649 176.987 C 269.181 177.436, 269.114 179.244, 269.501 181.005 L 270.205 184.208 273.181 180.597 C 276.848 176.147, 279.359 174.752, 284.189 174.480 C 286.791 174.333, 288.457 174.847, 289.650 176.165 C 290.594 177.208, 294.546 179.818, 298.433 181.964 C 310.520 188.637, 313.820 194.047, 309.670 200.382 C 307.636 203.486, 299.946 205.971, 292.068 206.070 C 289.006 206.109, 285.657 206.472, 284.626 206.877 C 282.933 207.542, 283.068 207.880, 286.018 210.362 C 294.218 217.262, 307.864 221.465, 318.500 220.368 C 326.165 219.577, 336.809 215.500, 341.507 211.555 C 344.792 208.797, 345.167 207.988, 345.167 203.643 C 345.167 200.066, 344.428 197.619, 342.333 194.258 C 338.174 187.584, 332.080 184.560, 317.563 181.965 C 304.926 179.707, 296.365 176.986, 293.106 174.193 C 291.161 172.527, 291.204 172.389, 295.815 165.500 C 299.546 159.925, 301.273 158.248, 304.295 157.261 C 306.382 156.580, 309.869 154.592, 312.044 152.844 C 314.220 151.096, 316.144 149.854, 316.322 150.083 C 316.499 150.312, 317.803 152.525, 319.221 155 C 321.322 158.671, 329.975 170.240, 332.850 173.224 C 333.234 173.622, 333.377 172.160, 333.169 169.974 C 332.912 167.283, 333.189 166, 334.025 166 C 334.704 166, 340.116 171.063, 346.050 177.250 C 354.727 186.296, 357.090 188.256, 358.116 187.254 C 359.144 186.250, 357.341 183.916, 348.850 175.254 C 343.051 169.339, 337.829 163.618, 337.246 162.539 C 336.451 161.071, 335.291 160.639, 332.622 160.819 C 328.451 161.100, 326.505 159.483, 322.433 152.352 C 319.476 147.175, 317.064 143.998, 316.095 144.003 C 315.768 144.005, 314.375 145.385, 313 147.070 M 251.500 253.658 C 243.025 255.544, 242 258.441, 242 280.500 C 242 300.676, 242.734 303.697, 248.278 306.328 C 252.583 308.370, 255.043 308.427, 259.454 306.584 C 264.016 304.677, 265.735 301.695, 266.563 294.250 L 267.258 288 264.129 288 C 261.041 288, 261 288.065, 261 293 C 261 300.339, 257.768 303.116, 251.258 301.372 C 247.786 300.441, 246.777 294.666, 247.162 277.919 C 247.544 261.275, 248.431 259, 254.533 259 C 258.729 259, 260.353 261.111, 260.985 267.386 C 261.453 272.037, 261.726 272.500, 264 272.500 C 266.386 272.500, 266.487 272.260, 266.218 267.232 C 265.861 260.555, 264.688 257.484, 261.795 255.650 C 259.109 253.949, 254.341 253.026, 251.500 253.658 M 353.396 254.127 C 347.099 255.558, 344.670 258.812, 344.183 266.470 C 343.657 274.726, 345.482 277.429, 354.939 282.398 C 362.961 286.614, 365 288.975, 365 294.048 C 365 300.104, 359.209 303.788, 354.039 301.021 C 352.041 299.952, 350 295.065, 350 291.351 C 350 289.405, 349.483 289, 347 289 C 344.155 289, 344 289.211, 344 293.099 C 344 299.489, 346.635 303.951, 351.745 306.211 C 357.716 308.853, 363.305 307.895, 367.726 303.474 C 370.652 300.548, 371 299.599, 371 294.550 C 371 285.611, 368.467 282.311, 357.237 276.620 C 354.396 275.181, 351.606 273.132, 351.036 272.067 C 347.806 266.032, 352.297 258.209, 358.303 259.411 C 362.819 260.314, 364.212 262.148, 364.767 267.925 C 365.235 272.794, 365.377 273, 368.266 273 L 371.278 273 370.739 267.063 C 369.762 256.286, 363.722 251.781, 353.396 254.127 M 400.667 253.962 C 398.558 254.375, 395.633 255.911, 394.167 257.377 L 391.500 260.041 391.233 279.270 C 390.944 300.105, 391.241 301.630, 396.323 305.404 C 399.612 307.846, 406.781 308.223, 411.559 306.206 C 417.368 303.755, 418.002 301.255, 417.985 280.846 C 417.975 268.276, 417.582 261.743, 416.735 260.096 C 414.079 254.928, 407.859 252.554, 400.667 253.962 M 175 280.500 L 175 307 188.500 307 L 202 307 202 304.035 L 202 301.070 191.750 300.785 L 181.500 300.500 181.211 291.750 L 180.922 283 190.961 283 L 201 283 201 280 L 201 277 191 277 L 181 277 181 268.500 L 181 260 191 260 L 201 260 201 257 L 201 254 188 254 L 175 254 175 280.500 M 205 254.444 C 205 254.688, 207.719 260.640, 211.042 267.671 L 217.084 280.454 211.042 293.231 C 207.719 300.258, 205 306.258, 205 306.564 C 205 306.870, 206.633 306.981, 208.628 306.810 C 212.193 306.505, 212.333 306.326, 216.680 296.500 C 219.113 291, 221.426 286.177, 221.819 285.782 C 222.213 285.388, 224.715 290, 227.379 296.032 C 232.196 306.939, 232.242 307, 235.679 307 C 238.803 307, 239.068 306.784, 238.437 304.750 C 238.053 303.512, 236.448 299.925, 234.870 296.779 C 233.291 293.632, 230.915 288.604, 229.589 285.605 L 227.177 280.152 233.068 267.826 C 236.308 261.047, 238.968 255.162, 238.979 254.750 C 238.991 254.338, 237.481 254, 235.625 254 C 232.295 254, 232.183 254.148, 227.167 265.216 L 222.083 276.431 218.451 268.466 C 216.454 264.085, 214.209 259.038, 213.461 257.250 C 212.290 254.449, 211.612 254, 208.551 254 C 206.598 254, 205 254.200, 205 254.444 M 273 275.532 C 273 299.184, 273.557 302.157, 278.614 305.499 C 282.364 307.977, 290.697 308.084, 294.335 305.700 C 300.175 301.873, 300.470 300.545, 300.846 276.296 L 301.193 254 298.184 254 L 295.175 254 294.837 274.797 C 294.445 298.968, 293.851 301.012, 287.227 300.985 C 279.497 300.953, 279 299.357, 279 274.566 L 279 254 276 254 L 273 254 273 275.532 M 308 280.500 L 308 307 311 307 L 314 307 314 296.500 L 314 286 318.006 286 L 322.012 286 327.234 296.500 L 332.456 307 336.263 307 L 340.070 307 334.873 297.250 C 332.014 291.887, 329.304 287.011, 328.850 286.413 C 328.353 285.757, 329.050 284.368, 330.608 282.913 C 335.007 278.802, 336.253 275.321, 335.811 268.376 C 335.494 263.399, 334.890 261.509, 332.955 259.437 C 328.826 255.018, 325.755 254, 316.550 254 L 308 254 308 280.500 M 378 280.500 L 378 307 380.500 307 L 383 307 383 280.500 L 383 254 380.500 254 L 378 254 378 280.500 M 425 280.437 L 425 307 427.978 307 L 430.956 307 431.228 288.250 L 431.500 269.500 439.559 288 C 447.446 306.105, 447.686 306.507, 450.809 306.813 L 454 307.127 454 280.563 L 454 254 451 254 L 448 254 448 271.700 C 448 282.301, 447.637 289.019, 447.094 288.450 C 446.596 287.928, 442.843 280.075, 438.753 271 C 431.567 255.057, 431.210 254.489, 428.158 254.187 L 425 253.873 425 280.437 M 399.566 261.343 C 397.019 263.890, 397 264.034, 397 280.344 C 397 298.673, 397.550 300.424, 403.684 301.609 C 406.252 302.105, 407.364 301.727, 409.434 299.657 C 411.981 297.110, 412 296.966, 412 280.656 C 412 262.327, 411.450 260.576, 405.316 259.391 C 402.748 258.895, 401.636 259.273, 399.566 261.343 M 314 270 L 314 280 319.250 279.978 C 326.722 279.946, 329.185 277.811, 329.761 270.867 C 330.163 266.026, 329.930 265.203, 327.468 262.740 C 325.162 260.434, 323.877 260, 319.364 260 L 314 260 314 270" stroke="none" fill="#141414" fill-rule="evenodd"/><path d="M 0 216 L 0 432 70.750 431.976 L 141.500 431.953 135.781 429.601 C 117.169 421.946, 102.517 404.612, 98.504 385.500 C 96.319 375.092, 96.295 56.991, 98.479 46.685 C 100.633 36.518, 106.108 26.026, 113.237 18.406 C 120.558 10.580, 126.035 6.654, 134.920 2.862 L 141.500 0.054 70.750 0.027 L 0 0 0 216 M 495.080 2.862 C 503.965 6.654, 509.442 10.580, 516.763 18.406 C 523.892 26.026, 529.367 36.518, 531.521 46.685 C 533.683 56.889, 533.683 375.111, 531.521 385.315 C 529.367 395.482, 523.892 405.974, 516.763 413.594 C 509.442 421.420, 503.965 425.346, 495.080 429.138 L 488.500 431.946 556.750 431.973 L 625 432 625 216 L 625 0 556.750 0.027 L 488.500 0.054 495.080 2.862 M 304.500 126.164 C 297.331 127.513, 285.983 133.401, 280.584 138.574 C 274.107 144.780, 268.551 153.783, 266.483 161.425 C 264.147 170.053, 264.818 185.103, 267.891 193 C 272.718 205.408, 283.957 216.673, 296.694 221.868 C 303.908 224.810, 317.322 225.823, 325.119 224.014 C 352.040 217.767, 369.174 191.615, 363.628 165.235 C 357.930 138.124, 332.002 120.991, 304.500 126.164 M 301 131.875 C 285.011 137.013, 272.774 151.356, 269.921 168.305 C 269.291 172.047, 269.011 175.344, 269.299 175.632 C 269.587 175.920, 271.652 173.678, 273.889 170.650 C 278.727 164.102, 279.331 163.674, 283.893 163.576 C 287.003 163.509, 288.046 162.711, 292.846 156.734 C 295.834 153.013, 299.228 149.776, 300.389 149.542 C 301.550 149.307, 304.151 148.851, 306.169 148.527 C 309.004 148.073, 310.312 147.136, 311.924 144.404 C 313.625 141.521, 314.517 140.926, 316.755 141.184 C 319.455 141.495, 320.590 142.868, 327.517 154.200 C 329.245 157.027, 330.242 157.581, 334.464 158.068 C 338.595 158.544, 339.806 159.191, 341.946 162.065 C 345.461 166.784, 355.209 176.507, 357.838 177.913 C 359.899 179.016, 359.999 178.869, 359.985 174.785 C 359.933 159.643, 350.545 143.464, 337.500 136.034 C 326.797 129.939, 312.201 128.275, 301 131.875 M 313 147.070 C 311.058 149.450, 309.400 150.287, 305.566 150.820 C 300.986 151.457, 300.359 151.901, 296.843 157.003 C 291.481 164.783, 287.641 168, 283.716 168 C 280.844 168, 275.408 171.473, 269.649 176.987 C 269.181 177.436, 269.114 179.244, 269.501 181.005 L 270.205 184.208 273.181 180.597 C 276.848 176.147, 279.359 174.752, 284.189 174.480 C 286.791 174.333, 288.457 174.847, 289.650 176.165 C 290.594 177.208, 294.546 179.818, 298.433 181.964 C 310.520 188.637, 313.820 194.047, 309.670 200.382 C 307.636 203.486, 299.946 205.971, 292.068 206.070 C 289.006 206.109, 285.657 206.472, 284.626 206.877 C 282.933 207.542, 283.068 207.880, 286.018 210.362 C 294.218 217.262, 307.864 221.465, 318.500 220.368 C 326.165 219.577, 336.809 215.500, 341.507 211.555 C 344.792 208.797, 345.167 207.988, 345.167 203.643 C 345.167 200.066, 344.428 197.619, 342.333 194.258 C 338.174 187.584, 332.080 184.560, 317.563 181.965 C 304.926 179.707, 296.365 176.986, 293.106 174.193 C 291.161 172.527, 291.204 172.389, 295.815 165.500 C 299.546 159.925, 301.273 158.248, 304.295 157.261 C 306.382 156.580, 309.869 154.592, 312.044 152.844 C 314.220 151.096, 316.144 149.854, 316.322 150.083 C 316.499 150.312, 317.803 152.525, 319.221 155 C 321.322 158.671, 329.975 170.240, 332.850 173.224 C 333.234 173.622, 333.377 172.160, 333.169 169.974 C 332.912 167.283, 333.189 166, 334.025 166 C 334.704 166, 340.116 171.063, 346.050 177.250 C 354.727 186.296, 357.090 188.256, 358.116 187.254 C 359.144 186.250, 357.341 183.916, 348.850 175.254 C 343.051 169.339, 337.829 163.618, 337.246 162.539 C 336.451 161.071, 335.291 160.639, 332.622 160.819 C 328.451 161.100, 326.505 159.483, 322.433 152.352 C 319.476 147.175, 317.064 143.998, 316.095 144.003 C 315.768 144.005, 314.375 145.385, 313 147.070 M 251.500 253.658 C 243.025 255.544, 242 258.441, 242 280.500 C 242 300.676, 242.734 303.697, 248.278 306.328 C 252.583 308.370, 255.043 308.427, 259.454 306.584 C 264.016 304.677, 265.735 301.695, 266.563 294.250 L 267.258 288 264.129 288 C 261.041 288, 261 288.065, 261 293 C 261 300.339, 257.768 303.116, 251.258 301.372 C 247.786 300.441, 246.777 294.666, 247.162 277.919 C 247.544 261.275, 248.431 259, 254.533 259 C 258.729 259, 260.353 261.111, 260.985 267.386 C 261.453 272.037, 261.726 272.500, 264 272.500 C 266.386 272.500, 266.487 272.260, 266.218 267.232 C 265.861 260.555, 264.688 257.484, 261.795 255.650 C 259.109 253.949, 254.341 253.026, 251.500 253.658 M 353.396 254.127 C 347.099 255.558, 344.670 258.812, 344.183 266.470 C 343.657 274.726, 345.482 277.429, 354.939 282.398 C 362.961 286.614, 365 288.975, 365 294.048 C 365 300.104, 359.209 303.788, 354.039 301.021 C 352.041 299.952, 350 295.065, 350 291.351 C 350 289.405, 349.483 289, 347 289 C 344.155 289, 344 289.211, 344 293.099 C 344 299.489, 346.635 303.951, 351.745 306.211 C 357.716 308.853, 363.305 307.895, 367.726 303.474 C 370.652 300.548, 371 299.599, 371 294.550 C 371 285.611, 368.467 282.311, 357.237 276.620 C 354.396 275.181, 351.606 273.132, 351.036 272.067 C 347.806 266.032, 352.297 258.209, 358.303 259.411 C 362.819 260.314, 364.212 262.148, 364.767 267.925 C 365.235 272.794, 365.377 273, 368.266 273 L 371.278 273 370.739 267.063 C 369.762 256.286, 363.722 251.781, 353.396 254.127 M 400.667 253.962 C 398.558 254.375, 395.633 255.911, 394.167 257.377 L 391.500 260.041 391.233 279.270 C 390.944 300.105, 391.241 301.630, 396.323 305.404 C 399.612 307.846, 406.781 308.223, 411.559 306.206 C 417.368 303.755, 418.002 301.255, 417.985 280.846 C 417.975 268.276, 417.582 261.743, 416.735 260.096 C 414.079 254.928, 407.859 252.554, 400.667 253.962 M 175 280.500 L 175 307 188.500 307 L 202 307 202 304.035 L 202 301.070 191.750 300.785 L 181.500 300.500 181.211 291.750 L 180.922 283 190.961 283 L 201 283 201 280 L 201 277 191 277 L 181 277 181 268.500 L 181 260 191 260 L 201 260 201 257 L 201 254 188 254 L 175 254 175 280.500 M 205 254.444 C 205 254.688, 207.719 260.640, 211.042 267.671 L 217.084 280.454 211.042 293.231 C 207.719 300.258, 205 306.258, 205 306.564 C 205 306.870, 206.633 306.981, 208.628 306.810 C 212.193 306.505, 212.333 306.326, 216.680 296.500 C 219.113 291, 221.426 286.177, 221.819 285.782 C 222.213 285.388, 224.715 290, 227.379 296.032 C 232.196 306.939, 232.242 307, 235.679 307 C 238.803 307, 239.068 306.784, 238.437 304.750 C 238.053 303.512, 236.448 299.925, 234.870 296.779 C 233.291 293.632, 230.915 288.604, 229.589 285.605 L 227.177 280.152 233.068 267.826 C 236.308 261.047, 238.968 255.162, 238.979 254.750 C 238.991 254.338, 237.481 254, 235.625 254 C 232.295 254, 232.183 254.148, 227.167 265.216 L 222.083 276.431 218.451 268.466 C 216.454 264.085, 214.209 259.038, 213.461 257.250 C 212.290 254.449, 211.612 254, 208.551 254 C 206.598 254, 205 254.200, 205 254.444 M 273 275.532 C 273 299.184, 273.557 302.157, 278.614 305.499 C 282.364 307.977, 290.697 308.084, 294.335 305.700 C 300.175 301.873, 300.470 300.545, 300.846 276.296 L 301.193 254 298.184 254 L 295.175 254 294.837 274.797 C 294.445 298.968, 293.851 301.012, 287.227 300.985 C 279.497 300.953, 279 299.357, 279 274.566 L 279 254 276 254 L 273 254 273 275.532 M 308 280.500 L 308 307 311 307 L 314 307 314 296.500 L 314 286 318.006 286 L 322.012 286 327.234 296.500 L 332.456 307 336.263 307 L 340.070 307 334.873 297.250 C 332.014 291.887, 329.304 287.011, 328.850 286.413 C 328.353 285.757, 329.050 284.368, 330.608 282.913 C 335.007 278.802, 336.253 275.321, 335.811 268.376 C 335.494 263.399, 334.890 261.509, 332.955 259.437 C 328.826 255.018, 325.755 254, 316.550 254 L 308 254 308 280.500 M 378 280.500 L 378 307 380.500 307 L 383 307 383 280.500 L 383 254 380.500 254 L 378 254 378 280.500 M 425 280.437 L 425 307 427.978 307 L 430.956 307 431.228 288.250 L 431.500 269.500 439.559 288 C 447.446 306.105, 447.686 306.507, 450.809 306.813 L 454 307.127 454 280.563 L 454 254 451 254 L 448 254 448 271.700 C 448 282.301, 447.637 289.019, 447.094 288.450 C 446.596 287.928, 442.843 280.075, 438.753 271 C 431.567 255.057, 431.210 254.489, 428.158 254.187 L 425 253.873 425 280.437 M 399.566 261.343 C 397.019 263.890, 397 264.034, 397 280.344 C 397 298.673, 397.550 300.424, 403.684 301.609 C 406.252 302.105, 407.364 301.727, 409.434 299.657 C 411.981 297.110, 412 296.966, 412 280.656 C 412 262.327, 411.450 260.576, 405.316 259.391 C 402.748 258.895, 401.636 259.273, 399.566 261.343 M 314 270 L 314 280 319.250 279.978 C 326.722 279.946, 329.185 277.811, 329.761 270.867 C 330.163 266.026, 329.930 265.203, 327.468 262.740 C 325.162 260.434, 323.877 260, 319.364 260 L 314 260 314 270" stroke="none" fill="#f0af51" fill-rule="evenodd"/></svg>